<mxfile host="Electron" modified="2024-01-02T09:46:52.415Z" agent="Mozilla/5.0 (Macintosh; Intel Mac OS X 10_15_7) AppleWebKit/537.36 (KHTML, like Gecko) draw.io/22.1.16 Chrome/120.0.6099.109 Electron/28.1.0 Safari/537.36" etag="DQQBDfYZiufkkDK-sOWx" version="22.1.16" type="device">
  <diagram name="overview" id="jfaSSI0YDOlwRBaEhNCn">
    <mxGraphModel dx="3130" dy="795" grid="1" gridSize="10" guides="1" tooltips="1" connect="1" arrows="1" fold="1" page="1" pageScale="1" pageWidth="850" pageHeight="1100" math="0" shadow="0">
      <root>
        <mxCell id="0" />
        <mxCell id="1" parent="0" />
        <mxCell id="P3PB628fnjOcMtxx2Tqv-16" value="eMAG" style="rounded=0;whiteSpace=wrap;html=1;verticalAlign=bottom;" vertex="1" parent="1">
          <mxGeometry x="-1170" y="660" width="200" height="250" as="geometry" />
        </mxCell>
        <mxCell id="P3PB628fnjOcMtxx2Tqv-4" value="Marketplace REST API" style="rounded=0;whiteSpace=wrap;html=1;verticalAlign=bottom;fillColor=#E8E8E8;" vertex="1" parent="1">
          <mxGeometry x="-1150" y="690" width="160" height="180" as="geometry" />
        </mxCell>
        <mxCell id="P3PB628fnjOcMtxx2Tqv-13" value="Orders" style="rounded=0;whiteSpace=wrap;html=1;" vertex="1" parent="1">
          <mxGeometry x="-1130" y="700" width="120" height="60" as="geometry" />
        </mxCell>
        <mxCell id="P3PB628fnjOcMtxx2Tqv-14" value="Products" style="rounded=0;whiteSpace=wrap;html=1;" vertex="1" parent="1">
          <mxGeometry x="-1130" y="780" width="120" height="60" as="geometry" />
        </mxCell>
        <mxCell id="P3PB628fnjOcMtxx2Tqv-17" value="Portunus" style="rounded=0;whiteSpace=wrap;html=1;verticalAlign=top;labelBackgroundColor=none;fillColor=#E8E8E8;strokeColor=default;gradientColor=none;" vertex="1" parent="1">
          <mxGeometry x="-1370" y="210" width="400" height="390" as="geometry" />
        </mxCell>
        <mxCell id="P3PB628fnjOcMtxx2Tqv-18" value="H2" style="rounded=1;whiteSpace=wrap;html=1;verticalAlign=top;fillColor=default;" vertex="1" parent="1">
          <mxGeometry x="-1340" y="320" width="160" height="190" as="geometry" />
        </mxCell>
        <mxCell id="P3PB628fnjOcMtxx2Tqv-21" value="Products" style="rounded=1;whiteSpace=wrap;html=1;" vertex="1" parent="1">
          <mxGeometry x="-1320" y="425" width="120" height="60" as="geometry" />
        </mxCell>
        <mxCell id="P3PB628fnjOcMtxx2Tqv-22" value="Orders" style="rounded=1;whiteSpace=wrap;html=1;" vertex="1" parent="1">
          <mxGeometry x="-1320" y="340" width="120" height="60" as="geometry" />
        </mxCell>
        <mxCell id="P3PB628fnjOcMtxx2Tqv-26" value="OpenCart" style="rounded=0;whiteSpace=wrap;html=1;verticalAlign=bottom;" vertex="1" parent="1">
          <mxGeometry x="-770" y="310" width="220" height="250" as="geometry" />
        </mxCell>
        <mxCell id="P3PB628fnjOcMtxx2Tqv-23" value="MariaDB" style="rounded=1;whiteSpace=wrap;html=1;verticalAlign=bottom;fillColor=#E8E8E8;" vertex="1" parent="1">
          <mxGeometry x="-740" y="320" width="160" height="200" as="geometry" />
        </mxCell>
        <mxCell id="P3PB628fnjOcMtxx2Tqv-24" value="Products" style="rounded=1;whiteSpace=wrap;html=1;" vertex="1" parent="1">
          <mxGeometry x="-720" y="425" width="120" height="60" as="geometry" />
        </mxCell>
        <mxCell id="P3PB628fnjOcMtxx2Tqv-25" value="Orders" style="rounded=1;whiteSpace=wrap;html=1;" vertex="1" parent="1">
          <mxGeometry x="-720" y="340" width="120" height="60" as="geometry" />
        </mxCell>
        <mxCell id="P3PB628fnjOcMtxx2Tqv-29" value="OpenCart Client UI&lt;br&gt;(Browser)" style="rounded=0;whiteSpace=wrap;html=1;" vertex="1" parent="1">
          <mxGeometry x="-490" y="340" width="120" height="60" as="geometry" />
        </mxCell>
        <mxCell id="P3PB628fnjOcMtxx2Tqv-129" style="edgeStyle=orthogonalEdgeStyle;rounded=0;orthogonalLoop=1;jettySize=auto;html=1;entryX=1;entryY=0.5;entryDx=0;entryDy=0;" edge="1" parent="1" source="P3PB628fnjOcMtxx2Tqv-30" target="P3PB628fnjOcMtxx2Tqv-31">
          <mxGeometry relative="1" as="geometry" />
        </mxCell>
        <mxCell id="P3PB628fnjOcMtxx2Tqv-30" value="products operator" style="shape=umlActor;verticalLabelPosition=bottom;verticalAlign=top;html=1;outlineConnect=0;fontSize=10;" vertex="1" parent="1">
          <mxGeometry x="-300" y="430" width="25" height="50" as="geometry" />
        </mxCell>
        <mxCell id="P3PB628fnjOcMtxx2Tqv-45" style="edgeStyle=orthogonalEdgeStyle;rounded=0;orthogonalLoop=1;jettySize=auto;html=1;entryX=1;entryY=0.5;entryDx=0;entryDy=0;" edge="1" parent="1" source="P3PB628fnjOcMtxx2Tqv-31" target="P3PB628fnjOcMtxx2Tqv-24">
          <mxGeometry relative="1" as="geometry" />
        </mxCell>
        <mxCell id="P3PB628fnjOcMtxx2Tqv-31" value="OpenCart Admin UI&lt;br&gt;(Browser)" style="rounded=0;whiteSpace=wrap;html=1;" vertex="1" parent="1">
          <mxGeometry x="-490" y="420" width="120" height="70" as="geometry" />
        </mxCell>
        <mxCell id="P3PB628fnjOcMtxx2Tqv-82" style="edgeStyle=orthogonalEdgeStyle;rounded=0;orthogonalLoop=1;jettySize=auto;html=1;entryX=1;entryY=0.5;entryDx=0;entryDy=0;" edge="1" parent="1" source="P3PB628fnjOcMtxx2Tqv-32" target="P3PB628fnjOcMtxx2Tqv-21">
          <mxGeometry relative="1" as="geometry" />
        </mxCell>
        <mxCell id="P3PB628fnjOcMtxx2Tqv-110" style="edgeStyle=orthogonalEdgeStyle;rounded=0;orthogonalLoop=1;jettySize=auto;html=1;entryX=0;entryY=0.5;entryDx=0;entryDy=0;" edge="1" parent="1" source="P3PB628fnjOcMtxx2Tqv-32" target="P3PB628fnjOcMtxx2Tqv-24">
          <mxGeometry relative="1" as="geometry" />
        </mxCell>
        <mxCell id="P3PB628fnjOcMtxx2Tqv-32" value="Products sync job" style="rounded=0;whiteSpace=wrap;html=1;" vertex="1" parent="1">
          <mxGeometry x="-1130" y="425" width="120" height="60" as="geometry" />
        </mxCell>
        <mxCell id="P3PB628fnjOcMtxx2Tqv-50" value="" style="edgeStyle=orthogonalEdgeStyle;rounded=0;orthogonalLoop=1;jettySize=auto;html=1;entryX=0;entryY=0.5;entryDx=0;entryDy=0;" edge="1" parent="1" source="P3PB628fnjOcMtxx2Tqv-33" target="P3PB628fnjOcMtxx2Tqv-25">
          <mxGeometry x="0.0909" y="20" relative="1" as="geometry">
            <mxPoint as="offset" />
          </mxGeometry>
        </mxCell>
        <mxCell id="P3PB628fnjOcMtxx2Tqv-83" style="edgeStyle=orthogonalEdgeStyle;rounded=0;orthogonalLoop=1;jettySize=auto;html=1;entryX=1;entryY=0.5;entryDx=0;entryDy=0;" edge="1" parent="1" source="P3PB628fnjOcMtxx2Tqv-33" target="P3PB628fnjOcMtxx2Tqv-22">
          <mxGeometry relative="1" as="geometry" />
        </mxCell>
        <mxCell id="P3PB628fnjOcMtxx2Tqv-33" value="Orders sync job" style="rounded=0;whiteSpace=wrap;html=1;" vertex="1" parent="1">
          <mxGeometry x="-1130" y="340" width="120" height="60" as="geometry" />
        </mxCell>
        <mxCell id="P3PB628fnjOcMtxx2Tqv-52" style="edgeStyle=orthogonalEdgeStyle;rounded=0;orthogonalLoop=1;jettySize=auto;html=1;entryX=0.5;entryY=0;entryDx=0;entryDy=0;" edge="1" parent="1" source="P3PB628fnjOcMtxx2Tqv-34" target="P3PB628fnjOcMtxx2Tqv-4">
          <mxGeometry relative="1" as="geometry" />
        </mxCell>
        <mxCell id="P3PB628fnjOcMtxx2Tqv-84" style="edgeStyle=orthogonalEdgeStyle;rounded=0;orthogonalLoop=1;jettySize=auto;html=1;entryX=0.5;entryY=1;entryDx=0;entryDy=0;" edge="1" parent="1" source="P3PB628fnjOcMtxx2Tqv-34" target="P3PB628fnjOcMtxx2Tqv-18">
          <mxGeometry relative="1" as="geometry" />
        </mxCell>
        <mxCell id="P3PB628fnjOcMtxx2Tqv-34" value="eMag sync job" style="rounded=0;whiteSpace=wrap;html=1;" vertex="1" parent="1">
          <mxGeometry x="-1130" y="510" width="120" height="60" as="geometry" />
        </mxCell>
        <mxCell id="P3PB628fnjOcMtxx2Tqv-93" style="edgeStyle=orthogonalEdgeStyle;rounded=0;orthogonalLoop=1;jettySize=auto;html=1;entryX=0;entryY=0.5;entryDx=0;entryDy=0;" edge="1" parent="1" source="P3PB628fnjOcMtxx2Tqv-36" target="P3PB628fnjOcMtxx2Tqv-18">
          <mxGeometry relative="1" as="geometry" />
        </mxCell>
        <mxCell id="P3PB628fnjOcMtxx2Tqv-36" value="Portunus UI&lt;br&gt;(Browser)" style="rounded=0;whiteSpace=wrap;html=1;" vertex="1" parent="1">
          <mxGeometry x="-1580" y="385" width="120" height="60" as="geometry" />
        </mxCell>
        <mxCell id="P3PB628fnjOcMtxx2Tqv-39" value="https" style="endArrow=none;dashed=1;html=1;rounded=0;verticalAlign=middle;" edge="1" parent="1">
          <mxGeometry x="1" y="20" width="50" height="50" relative="1" as="geometry">
            <mxPoint x="-1410" y="565" as="sourcePoint" />
            <mxPoint x="-1410" y="275" as="targetPoint" />
            <mxPoint x="20" y="-20" as="offset" />
          </mxGeometry>
        </mxCell>
        <mxCell id="P3PB628fnjOcMtxx2Tqv-48" value="https" style="endArrow=none;dashed=1;html=1;rounded=0;verticalAlign=middle;" edge="1" parent="1">
          <mxGeometry x="-1" y="-30" width="50" height="50" relative="1" as="geometry">
            <mxPoint x="-520" y="585" as="sourcePoint" />
            <mxPoint x="-520" y="310" as="targetPoint" />
            <mxPoint x="-30" y="30" as="offset" />
          </mxGeometry>
        </mxCell>
        <mxCell id="P3PB628fnjOcMtxx2Tqv-51" value="jdbc" style="endArrow=none;dashed=1;html=1;rounded=0;verticalAlign=middle;" edge="1" parent="1">
          <mxGeometry x="-0.9091" y="20" width="50" height="50" relative="1" as="geometry">
            <mxPoint x="-850" y="490" as="sourcePoint" />
            <mxPoint x="-850" y="340" as="targetPoint" />
            <mxPoint as="offset" />
          </mxGeometry>
        </mxCell>
        <mxCell id="P3PB628fnjOcMtxx2Tqv-53" value="https (basic auth)" style="endArrow=none;dashed=1;html=1;rounded=0;verticalAlign=middle;" edge="1" parent="1">
          <mxGeometry x="-0.8" y="10" width="50" height="50" relative="1" as="geometry">
            <mxPoint x="-1195" y="630" as="sourcePoint" />
            <mxPoint x="-945" y="630" as="targetPoint" />
            <mxPoint as="offset" />
          </mxGeometry>
        </mxCell>
        <mxCell id="P3PB628fnjOcMtxx2Tqv-86" value="&lt;h1&gt;&lt;font style=&quot;font-size: 15px;&quot;&gt;Open questions / notes&lt;/font&gt;&lt;/h1&gt;&lt;p&gt;1. We will need photos in order to push data to eMAG&lt;/p&gt;&lt;p&gt;&lt;br&gt;&lt;/p&gt;" style="text;html=1;strokeColor=none;fillColor=none;spacing=5;spacingTop=-20;whiteSpace=wrap;overflow=hidden;rounded=0;" vertex="1" parent="1">
          <mxGeometry x="-830" y="670" width="320" height="120" as="geometry" />
        </mxCell>
        <mxCell id="P3PB628fnjOcMtxx2Tqv-87" value="- replicate orders&lt;br style=&quot;font-size: 10px;&quot;&gt;&lt;div style=&quot;font-size: 10px;&quot;&gt;&lt;span style=&quot;background-color: initial; font-size: 10px;&quot;&gt;- update order statuses&lt;/span&gt;&lt;/div&gt;" style="text;html=1;strokeColor=none;fillColor=none;align=left;verticalAlign=middle;whiteSpace=wrap;rounded=0;fontSize=10;" vertex="1" parent="1">
          <mxGeometry x="-960" y="330" width="130" height="30" as="geometry" />
        </mxCell>
        <mxCell id="P3PB628fnjOcMtxx2Tqv-88" value="- replicate products" style="text;html=1;strokeColor=none;fillColor=none;align=left;verticalAlign=middle;whiteSpace=wrap;rounded=0;fontSize=10;" vertex="1" parent="1">
          <mxGeometry x="-960" y="420" width="100" height="30" as="geometry" />
        </mxCell>
        <mxCell id="P3PB628fnjOcMtxx2Tqv-101" value="eMAG UI&lt;br&gt;(Browser)" style="rounded=0;whiteSpace=wrap;html=1;" vertex="1" parent="1">
          <mxGeometry x="-1350" y="760" width="120" height="60" as="geometry" />
        </mxCell>
        <mxCell id="P3PB628fnjOcMtxx2Tqv-102" style="edgeStyle=orthogonalEdgeStyle;rounded=0;orthogonalLoop=1;jettySize=auto;html=1;entryX=-0.019;entryY=0.523;entryDx=0;entryDy=0;entryPerimeter=0;" edge="1" parent="1" source="P3PB628fnjOcMtxx2Tqv-101" target="P3PB628fnjOcMtxx2Tqv-16">
          <mxGeometry relative="1" as="geometry" />
        </mxCell>
        <mxCell id="P3PB628fnjOcMtxx2Tqv-104" value="econt REST API" style="rounded=0;whiteSpace=wrap;html=1;" vertex="1" parent="1">
          <mxGeometry x="-720" y="230" width="110" height="60" as="geometry" />
        </mxCell>
        <mxCell id="P3PB628fnjOcMtxx2Tqv-105" value="Delivery module" style="rounded=0;whiteSpace=wrap;html=1;" vertex="1" parent="1">
          <mxGeometry x="-1130" y="230" width="120" height="60" as="geometry" />
        </mxCell>
        <mxCell id="P3PB628fnjOcMtxx2Tqv-109" value="https (basic auth)" style="endArrow=none;dashed=1;html=1;rounded=0;verticalAlign=middle;" edge="1" parent="1">
          <mxGeometry x="-1" y="14" width="50" height="50" relative="1" as="geometry">
            <mxPoint x="-850" y="210" as="sourcePoint" />
            <mxPoint x="-850" y="300" as="targetPoint" />
            <mxPoint x="-4" y="-10" as="offset" />
          </mxGeometry>
        </mxCell>
        <mxCell id="P3PB628fnjOcMtxx2Tqv-114" style="edgeStyle=orthogonalEdgeStyle;rounded=0;orthogonalLoop=1;jettySize=auto;html=1;entryX=1;entryY=0.239;entryDx=0;entryDy=0;entryPerimeter=0;" edge="1" parent="1" source="P3PB628fnjOcMtxx2Tqv-29" target="P3PB628fnjOcMtxx2Tqv-26">
          <mxGeometry relative="1" as="geometry" />
        </mxCell>
        <mxCell id="P3PB628fnjOcMtxx2Tqv-119" style="edgeStyle=orthogonalEdgeStyle;rounded=0;orthogonalLoop=1;jettySize=auto;html=1;" edge="1" parent="1" source="P3PB628fnjOcMtxx2Tqv-105" target="P3PB628fnjOcMtxx2Tqv-104">
          <mxGeometry relative="1" as="geometry" />
        </mxCell>
        <mxCell id="P3PB628fnjOcMtxx2Tqv-120" value="- request courier&lt;br&gt;- print delivery label" style="text;html=1;strokeColor=none;fillColor=none;align=left;verticalAlign=middle;whiteSpace=wrap;rounded=0;fontSize=10;" vertex="1" parent="1">
          <mxGeometry x="-960" y="220" width="130" height="30" as="geometry" />
        </mxCell>
        <mxCell id="P3PB628fnjOcMtxx2Tqv-128" style="edgeStyle=orthogonalEdgeStyle;rounded=0;orthogonalLoop=1;jettySize=auto;html=1;entryX=1;entryY=0.5;entryDx=0;entryDy=0;" edge="1" parent="1" source="P3PB628fnjOcMtxx2Tqv-126" target="P3PB628fnjOcMtxx2Tqv-29">
          <mxGeometry relative="1" as="geometry" />
        </mxCell>
        <mxCell id="P3PB628fnjOcMtxx2Tqv-126" value="shop client" style="shape=umlActor;verticalLabelPosition=bottom;verticalAlign=top;html=1;outlineConnect=0;fontSize=10;" vertex="1" parent="1">
          <mxGeometry x="-300" y="345" width="25" height="50" as="geometry" />
        </mxCell>
        <mxCell id="P3PB628fnjOcMtxx2Tqv-131" style="edgeStyle=orthogonalEdgeStyle;rounded=0;orthogonalLoop=1;jettySize=auto;html=1;" edge="1" parent="1" source="P3PB628fnjOcMtxx2Tqv-130" target="P3PB628fnjOcMtxx2Tqv-101">
          <mxGeometry relative="1" as="geometry" />
        </mxCell>
        <mxCell id="P3PB628fnjOcMtxx2Tqv-130" value="shop client" style="shape=umlActor;verticalLabelPosition=bottom;verticalAlign=top;html=1;outlineConnect=0;fontSize=10;" vertex="1" parent="1">
          <mxGeometry x="-1450" y="765" width="25" height="50" as="geometry" />
        </mxCell>
        <mxCell id="P3PB628fnjOcMtxx2Tqv-133" style="edgeStyle=orthogonalEdgeStyle;rounded=0;orthogonalLoop=1;jettySize=auto;html=1;entryX=0;entryY=0.5;entryDx=0;entryDy=0;" edge="1" parent="1" source="P3PB628fnjOcMtxx2Tqv-132" target="P3PB628fnjOcMtxx2Tqv-36">
          <mxGeometry relative="1" as="geometry" />
        </mxCell>
        <mxCell id="P3PB628fnjOcMtxx2Tqv-132" value="orders processor" style="shape=umlActor;verticalLabelPosition=bottom;verticalAlign=top;html=1;outlineConnect=0;fontSize=10;" vertex="1" parent="1">
          <mxGeometry x="-1670" y="390" width="25" height="50" as="geometry" />
        </mxCell>
      </root>
    </mxGraphModel>
  </diagram>
</mxfile>
